<?xml version="1.0" standalone="no"?>
<!DOCTYPE svg PUBLIC "-//W3C//DTD SVG 20010904//EN"
 "http://www.w3.org/TR/2001/REC-SVG-20010904/DTD/svg10.dtd">
<svg version="1.0" xmlns="http://www.w3.org/2000/svg"
 width="960.000000pt" height="960.000000pt" viewBox="0 0 960.000000 960.000000"
 preserveAspectRatio="xMidYMid meet">
<metadata>
Created by potrace 1.14, written by Peter Selinger 2001-2017
</metadata>
<g transform="translate(0.000000,960.000000) scale(0.100000,-0.100000)"
fill="#000000" stroke="none">
<path d="M1000 4800 l0 -4800 3800 0 3800 0 0 4800 0 4800 -3800 0 -3800 0 0
-4800z m2262 4399 c519 0 948 1 953 2 6 1 14 1 19 0 11 -2 1888 -2 1901 0 6 1
14 1 19 0 17 -3 1898 -3 1901 1 2 2 36 1 77 -2 l73 -5 0 -4400 0 -4400 -3402
-1 -3402 -1 2 4401 2 4401 443 2 c244 0 446 4 449 7 3 3 10 3 14 0 5 -3 433
-5 951 -5z"/>
<path d="M2057 8804 c-3 -3 -62 -6 -130 -5 l-124 0 -1 -195 c-1 -188 0 -195
19 -202 11 -5 35 -6 52 -5 18 2 37 4 42 4 6 0 60 0 120 -1 61 0 119 0 130 0
11 0 120 0 242 -1 122 -1 226 2 231 5 5 3 12 3 16 -1 8 -8 130 -8 143 0 6 4
13 4 17 0 8 -8 130 -8 143 0 6 4 13 4 17 0 8 -8 130 -8 143 0 6 4 13 4 17 0 8
-8 130 -8 143 0 6 4 13 4 17 0 8 -8 130 -8 143 0 6 4 13 4 17 0 8 -8 130 -8
143 0 6 4 13 4 17 0 8 -8 130 -8 143 0 6 4 13 4 16 0 4 -3 73 -5 154 -4 182 2
163 2 223 0 28 -1 50 -4 51 -8 1 -8 1 -373 0 -386 -1 -11 -131 -14 -131 -3 0
4 -8 4 -17 1 -10 -4 -33 -6 -53 -5 -40 2 -64 2 -173 -1 -42 -1 -77 2 -77 6 0
5 -5 5 -11 1 -16 -10 -149 -11 -149 -1 0 4 -8 4 -17 0 -22 -10 -105 -9 -121 1
-7 4 -12 4 -12 -1 0 -7 -134 -9 -165 -3 -5 1 -12 2 -15 0 -17 -6 -150 -4 -150
3 0 5 -5 5 -11 1 -16 -10 -149 -11 -149 -1 0 4 -8 4 -17 0 -22 -10 -105 -9
-121 1 -7 4 -12 4 -12 -1 0 -7 -134 -9 -165 -3 -5 1 -12 2 -15 1 -17 -7 -100
-5 -100 2 0 5 -5 5 -11 1 -16 -10 -149 -11 -149 -1 0 5 -5 5 -12 1 -16 -10
-150 -11 -170 -2 -10 5 -18 5 -18 1 0 -4 -20 -8 -45 -8 -25 0 -45 4 -45 8 0 5
-5 5 -11 1 -15 -9 -109 -11 -109 -2 0 4 -6 5 -12 3 -27 -10 -108 -11 -108 -2
0 5 -7 4 -15 -3 -11 -9 -15 -35 -15 -104 0 -50 0 -98 -1 -106 -2 -103 5 -190
15 -191 66 -5 325 -3 338 3 9 5 19 5 21 1 6 -10 210 -9 225 1 6 3 13 3 15 -1
6 -10 449 -9 465 1 6 3 13 3 15 -1 6 -10 210 -9 225 1 6 3 13 3 15 -1 6 -10
210 -9 225 1 6 3 13 3 15 -1 6 -10 210 -9 225 1 6 3 13 3 15 -1 6 -10 975 -9
984 1 4 3 7 272 7 596 1 516 -1 591 -14 595 -8 2 -72 4 -142 5 -71 0 -134 1
-140 1 -11 0 -122 0 -323 0 -11 0 -51 0 -90 0 -38 0 -74 0 -80 0 -5 0 -66 0
-135 -1 -69 0 -133 0 -142 0 -10 0 -38 0 -63 0 -76 0 -157 0 -225 0 -36 1 -69
1 -75 1 -5 0 -66 0 -135 -1 -69 0 -133 0 -142 0 -10 0 -38 0 -63 0 -25 0 -71
0 -102 0 -93 0 -337 1 -348 1 -5 0 -76 -1 -157 -1 -81 -1 -151 1 -156 4 -5 3
-12 3 -15 0z"/>
<path d="M5008 8797 c-3 -6 -4 -279 -4 -606 l1 -594 125 -1 c69 -1 133 2 142
6 9 5 19 5 21 1 5 -7 196 -9 222 -3 6 1 12 1 15 0 16 -6 1168 -4 1182 2 9 5
19 5 21 1 6 -10 210 -9 225 1 6 3 13 3 15 -1 6 -10 210 -9 225 1 6 3 13 3 15
-1 6 -10 210 -9 225 1 6 3 13 3 15 -1 6 -10 335 -9 345 1 10 10 11 377 1 396
-5 8 -9 11 -9 5 0 -12 -200 -14 -200 -2 0 5 -5 5 -11 1 -16 -10 -149 -11 -149
-1 0 4 -8 4 -17 0 -22 -10 -105 -9 -121 1 -7 4 -12 4 -12 -1 0 -7 -134 -9
-165 -3 -5 1 -12 2 -15 0 -17 -6 -150 -4 -150 3 0 5 -5 5 -11 1 -16 -10 -149
-11 -149 -1 0 4 -8 4 -17 0 -22 -10 -105 -9 -121 1 -7 4 -12 4 -12 -1 0 -7
-134 -9 -165 -3 -5 1 -12 1 -15 0 -17 -6 -230 -4 -230 3 0 5 -5 5 -11 1 -16
-10 -109 -11 -109 -1 0 5 -5 5 -11 1 -15 -9 -109 -11 -109 -2 0 4 -8 4 -17 1
-10 -4 -33 -6 -53 -5 -42 3 -77 2 -148 -1 -28 -1 -52 2 -52 6 0 5 -5 5 -11 1
-16 -10 -149 -11 -149 -1 0 5 -5 5 -11 1 -16 -10 -111 -12 -130 -3 -13 7 -15
35 -15 201 l1 193 50 3 c64 3 44 3 305 2 124 0 234 0 245 0 11 0 120 0 242 -1
122 -1 226 2 231 5 5 3 12 3 16 -1 8 -8 130 -8 143 0 6 4 13 4 17 0 8 -8 130
-8 143 0 6 4 13 4 17 0 8 -8 130 -8 143 0 6 4 13 4 17 0 8 -8 130 -8 143 0 6
4 13 4 17 0 8 -8 130 -8 143 0 6 4 13 4 17 0 8 -8 130 -8 143 0 6 4 13 4 17 0
8 -8 130 -8 143 0 6 4 13 4 16 0 9 -8 127 -10 127 -1 0 4 13 3 29 -2 20 -6 31
-4 34 3 2 7 3 98 3 202 l-1 190 -25 1 c-59 4 -207 5 -402 4 -10 0 -38 0 -63 0
-76 0 -157 0 -225 0 -36 1 -69 1 -75 1 -5 0 -66 0 -135 -1 -69 0 -133 0 -142
0 -10 0 -38 0 -63 0 -25 0 -71 0 -102 0 -93 0 -337 1 -348 1 -5 0 -75 0 -155
0 -80 0 -152 0 -160 0 -8 0 -75 -1 -148 -2 -73 -1 -135 1 -138 4 -3 3 -12 3
-19 1 -17 -7 -105 -10 -105 -4 0 3 -24 4 -52 2 -42 -2 -210 -3 -310 -1 -10 0
-38 -1 -63 -1 -24 -1 -48 1 -54 4 -5 3 -11 0 -13 -7z"/>
<path d="M1960 7203 c0 -4 -36 -7 -81 -7 l-80 1 3 -54 c3 -30 1 -56 -4 -59 -5
-3 -6 -10 -3 -15 5 -7 7 -248 4 -479 0 -16 0 -371 1 -405 0 -11 0 -57 0 -102
1 -46 4 -83 8 -84 4 0 542 -2 1195 -2 1048 -2 1190 0 1196 13 3 8 6 98 5 200
l-1 185 -994 2 c-547 0 -997 2 -1001 2 -3 1 -5 90 -5 199 l2 197 1195 1 c657
1 1197 -2 1200 -7 3 -4 5 -183 4 -398 0 -215 2 -391 5 -392 44 -7 384 -2 390
6 4 6 6 186 6 401 l-1 391 1201 -1 1200 -1 0 -193 c0 -117 -4 -196 -10 -200
-5 -3 -455 -6 -1000 -6 l-990 -1 -1 -197 c0 -109 2 -198 5 -199 25 -4 2385 -3
2390 1 4 3 7 273 7 600 l-1 595 -163 0 c-89 0 -162 4 -162 8 0 5 -6 5 -12 0
-17 -10 -67 -11 -94 -1 -12 4 -25 4 -28 1 -10 -10 -280 -10 -293 0 -7 5 -13 6
-13 1 0 -11 -91 -11 -108 0 -7 4 -12 3 -12 -3 0 -7 -8 -7 -24 -1 -13 5 -27 6
-30 3 -9 -10 -346 -9 -346 0 0 5 -6 5 -12 0 -17 -10 -67 -11 -94 -1 -12 4 -25
4 -28 1 -10 -10 -280 -10 -293 0 -7 5 -13 6 -13 1 0 -11 -91 -11 -108 0 -7 4
-12 3 -12 -3 0 -7 -8 -7 -24 -1 -13 5 -27 6 -30 3 -9 -10 -346 -9 -346 0 0 5
-6 5 -12 0 -17 -10 -67 -11 -94 -1 -12 4 -25 4 -28 1 -10 -10 -280 -10 -293 0
-7 5 -13 6 -13 1 0 -11 -91 -11 -108 0 -7 4 -12 3 -12 -3 0 -7 -8 -7 -24 -1
-13 5 -27 6 -30 3 -9 -10 -346 -9 -346 0 0 5 -6 5 -12 0 -17 -10 -67 -11 -94
-1 -12 4 -25 4 -28 1 -10 -10 -280 -10 -293 0 -7 5 -13 6 -13 1 0 -11 -91 -11
-108 0 -7 4 -12 3 -12 -3 0 -7 -8 -7 -24 -1 -13 5 -27 6 -30 3 -9 -10 -346 -9
-346 0 0 5 -6 5 -12 0 -17 -10 -67 -11 -94 -1 -12 4 -25 4 -28 1 -10 -10 -280
-10 -293 0 -7 5 -13 6 -13 1 0 -11 -91 -11 -108 0 -7 4 -12 3 -12 -3 0 -7 -8
-7 -24 -1 -13 5 -27 6 -30 3 -10 -10 -346 -9 -346 1 0 5 -6 4 -12 0 -7 -5 -67
-8 -133 -7 -147 4 -132 4 -180 0 -22 -2 -48 1 -57 5 -10 5 -18 5 -18 1 0 -4
-42 -7 -92 -5 -113 3 -104 3 -153 -1 -22 -2 -48 1 -57 5 -10 5 -18 5 -18 1z"/>
<path d="M1800 5216 c0 -210 -1 -385 -1 -391 0 -5 0 -111 0 -235 0 -124 0
-232 0 -240 0 -8 0 -116 0 -240 0 -124 0 -232 0 -240 0 -8 0 -116 0 -240 0
-124 0 -232 0 -240 0 -22 0 -311 1 -335 0 -11 1 -74 3 -140 l2 -120 193 0
c106 -1 196 3 199 8 3 5 6 545 7 1201 l1 1191 2600 0 2600 0 0 -1200 0 -1200
200 0 200 0 0 1398 c0 948 -3 1397 -10 1399 -5 0 -1356 2 -3002 3 l-2991 1 -2
-380z"/>
<path d="M2604 4785 c-2 -5 -2 -95 -1 -200 l2 -190 998 0 c548 0 997 -2 998
-5 1 -3 2 -183 2 -400 l2 -395 193 0 c120 0 196 3 200 10 3 5 6 185 7 400 l0
390 995 0 c547 0 997 3 1000 7 3 4 5 94 5 200 l0 193 -2199 0 c-1481 0 -2199
-3 -2202 -10z"/>
<path d="M2602 3410 c-1 -322 1 -592 4 -600 4 -14 229 -16 2201 -15 l2198 0 0
597 c0 393 -3 599 -10 601 -9 3 -1572 1 -1586 -2 -3 0 -5 -90 -5 -198 l1 -198
598 0 c328 0 598 -2 598 -5 3 -13 5 -376 2 -385 -2 -7 -611 -10 -1801 -10
l-1797 0 -2 180 c-1 99 0 189 2 200 4 20 12 20 595 20 326 0 595 2 598 5 8 6
10 389 2 391 -3 1 -363 2 -802 3 l-796 1 0 -585z"/>
<path d="M1800 2260 c0 -74 0 -142 -1 -150 0 -8 0 -116 0 -240 0 -124 0 -232
0 -240 0 -8 0 -152 0 -320 0 -168 0 -312 0 -320 0 -8 1 -56 2 -106 l1 -91 199
0 c137 0 199 4 200 11 0 6 1 96 2 201 l2 189 1998 1 c1324 0 1997 -3 1998 -10
1 -5 2 -93 4 -195 1 -102 3 -188 4 -191 0 -4 90 -6 199 -5 l197 1 0 198 c0
169 2 197 15 198 8 1 278 2 600 2 l585 2 0 598 c1 328 -2 597 -5 598 -3 1
-1354 2 -3002 3 l-2998 1 0 -135z m5605 -457 c0 -105 -4 -195 -8 -200 -5 -4
-1176 -8 -2602 -9 l-2593 0 0 195 c0 108 4 198 8 201 4 3 1175 5 2602 5 l2593
0 0 -192z"/>
</g>
</svg>
