<?xml version="1.0" encoding="UTF-8" standalone="no"?>
<svg
   version="1.1"
   preserveAspectRatio="xMinYMin"
   x="0px"
   y="0px"
   width="19"
   height="24"
   viewBox="0 0 19 24"
   id="svg1032"
   sodipodi:docname="seal copie.svg"
   inkscape:version="1.3 (0e150ed, 2023-07-21)"
   xmlns:inkscape="http://www.inkscape.org/namespaces/inkscape"
   xmlns:sodipodi="http://sodipodi.sourceforge.net/DTD/sodipodi-0.dtd"
   xmlns="http://www.w3.org/2000/svg"
   xmlns:svg="http://www.w3.org/2000/svg"
   xmlns:rdf="http://www.w3.org/1999/02/22-rdf-syntax-ns#"
   xmlns:cc="http://creativecommons.org/ns#"
   xmlns:dc="http://purl.org/dc/elements/1.1/">
  <sodipodi:namedview
     inkscape:current-layer="svg1032"
     inkscape:window-maximized="0"
     inkscape:window-y="0"
     inkscape:window-x="0"
     inkscape:cy="112.21003"
     inkscape:cx="82.116282"
     inkscape:zoom="2.1433021"
     showgrid="true"
     id="namedview36"
     inkscape:window-height="900"
     inkscape:window-width="1440"
     inkscape:pageshadow="2"
     inkscape:pageopacity="0"
     guidetolerance="10"
     gridtolerance="10"
     objecttolerance="10"
     borderopacity="1"
     bordercolor="#666666"
     pagecolor="#ffffff"
     inkscape:showpageshadow="0"
     inkscape:pagecheckerboard="1"
     inkscape:deskcolor="#d1d1d1">
    <inkscape:grid
       id="grid38"
       type="xygrid"
       originx="0"
       originy="0"
       spacingy="1"
       spacingx="1"
       units="px"
       visible="true" />
  </sodipodi:namedview>
  <metadata
     id="metadata1038">
    <rdf:RDF>
      <cc:Work
         rdf:about="">
        <dc:format>image/svg+xml</dc:format>
        <dc:type
           rdf:resource="http://purl.org/dc/dcmitype/StillImage" />
      </cc:Work>
    </rdf:RDF>
  </metadata>
  <defs
     id="defs1036" />
  <path
     style="fill:#ff0000;stroke-width:1"
     d="M 0,0 V 24 H 19 V 0 Z M 0.99999999,0.99999999 H 18 V 23 H 0.99999999 Z"
     id="path1012" />
  <path
     d="M 2,2 H 8.9999999 V 5.0000001 H 2 v -1 h 5.9999999 v -1 H 2 Z"
     fill="#ff0000"
     id="path1016"
     style="stroke-width:1" />
  <path
     d="M 9.9999999,2 H 17 v 1.0000001 h -6 v 1 h 6 v 1 H 9.9999999 Z"
     fill="#ff0000"
     id="path1018"
     style="stroke-width:1" />
  <path
     d="m 2,6 h 15 v 2.9999999 h -6 v -1 h 5.000001 v -1 H 9.9999999 v 2 h -1 v -2 H 3.0000001 v 1 h 4.9999998 v 1 H 2 Z"
     fill="#ff0000"
     id="path1020"
     style="stroke-width:1" />
  <path
     style="fill:#ff0000;stroke-width:1"
     d="M 2,9.9999999 H 17 V 17 H 16.000001 V 11 H 3.0000001 v 6 H 2 Z"
     fill="rgb(255,0,0)"
     id="path1022" />
  <path
     d="M 4.0000001,12 H 15 v 1 H 9.9999999 v 2 h -1 V 13 H 4.0000001 Z"
     fill="#ff0000"
     id="path1024"
     style="stroke-width:1" />
  <path
     d="m 4.0000001,14 h 3.9999998 v 1 H 5.0000001 v 1.000001 H 14 V 15 h -3 v -1 h 4 v 3 H 4.0000001 Z"
     fill="#ff0000"
     id="path1026"
     style="stroke-width:1" />
  <path
     style="fill:#ff0000;stroke-width:1"
     d="m 2,18 v 4 H 3.0000001 V 20.999999 H 13 V 22 h 1 v -1.000001 h 3 V 18 Z m 1.0000001,1 H 16.000001 v 1 H 3.0000001 Z"
     id="path1028" />
</svg>
